<?xml version="1.0" encoding="UTF-8" standalone="no"?>
<!-- Created with Inkscape (http://www.inkscape.org/) -->

<svg
   width="83.814712mm"
   height="53.8056704mm"
   viewBox="0 0 104.76839 67.257088"
   version="1.1"
   id="svg1"
   inkscape:version="1.4.2 (ebf0e940, 2025-05-08)"
   sodipodi:docname="usb2neogeo_typed.svg"
   xmlns:inkscape="http://www.inkscape.org/namespaces/inkscape"
   xmlns:sodipodi="http://sodipodi.sourceforge.net/DTD/sodipodi-0.dtd"
   xmlns="http://www.w3.org/2000/svg"
   xmlns:svg="http://www.w3.org/2000/svg">
  <sodipodi:namedview
     id="namedview1"
     pagecolor="#ffffff"
     bordercolor="#000000"
     borderopacity="0.25"
     inkscape:showpageshadow="2"
     inkscape:pageopacity="0.0"
     inkscape:pagecheckerboard="0"
     inkscape:deskcolor="#d1d1d1"
     inkscape:document-units="mm"
     inkscape:zoom="1.5864338"
     inkscape:cx="183.11511"
     inkscape:cy="109.36479"
     inkscape:window-width="1600"
     inkscape:window-height="782"
     inkscape:window-x="0"
     inkscape:window-y="25"
     inkscape:window-maximized="1"
     inkscape:current-layer="layer1" />
  <defs
     id="defs1" />
  <g
     inkscape:label="Layer 1"
     inkscape:groupmode="layer"
     id="layer1"
     transform="translate(-56.356249,-147.10833)">
    <circle
       style="fill:none;stroke:#546e7a;stroke-width:0.269285;stroke-dasharray:none;stroke-opacity:1;fill-opacity:1"
       id="path2"
       cx="67.672478"
       cy="197.78795"
       r="11.181586"
       inkscape:label="B1" />
    <circle
       style="fill:#e61a1a;stroke:#546e7a;stroke-width:0.269285;stroke-dasharray:none;stroke-opacity:1;fill-opacity:1"
       id="path2-8"
       cx="72.916512"
       cy="168.92323"
       r="11.181586"
       inkscape:label="B3" />
    <circle
       style="fill:#fafafa;stroke:#546e7a;stroke-width:0.269285;stroke-dasharray:none;stroke-opacity:1;fill-opacity:1"
       id="path2-4"
       cx="92.414986"
       cy="187.2959"
       r="11.181586"
       inkscape:label="B2" />
    <circle
       style="fill:none;stroke:#546e7a;stroke-width:0.269285;stroke-dasharray:none;stroke-opacity:1;fill-opacity:1"
       id="path2-4-0"
       cx="144.93213"
       cy="203.04919"
       r="11.181586"
       inkscape:label="L2" />
    <circle
       style="fill:none;stroke:#546e7a;stroke-width:0.269285;stroke-dasharray:none;stroke-opacity:1;fill-opacity:1"
       id="path2-4-7"
       cx="121.80225"
       cy="191.79514"
       r="11.181586"
       inkscape:label="R2" />
    <circle
       style="fill:#0070bb;stroke:#546e7a;stroke-width:0.269285;stroke-dasharray:none;stroke-opacity:1;fill-opacity:1"
       id="path2-4-1"
       cx="149.80841"
       cy="174.17123"
       r="11.181586"
       inkscape:label="L1" />
    <circle
       style="fill:#43b047;stroke:#546e7a;stroke-width:0.269285;stroke-dasharray:none;stroke-opacity:1;fill-opacity:1"
       id="path2-4-2"
       cx="124.29992"
       cy="162.91454"
       r="11.181586"
       inkscape:label="R1" />
    <circle
       style="fill:#f4d03f;stroke:#546e7a;stroke-width:0.269285;stroke-dasharray:none;stroke-opacity:1;fill-opacity:1"
       id="path2-0"
       cx="97.666962"
       cy="158.42456"
       r="11.181586"
       inkscape:label="B4" />
    <path
       d="m 67.621838,198.48489 q 0,0.26768 -0.101286,0.47266 -0.101286,0.20499 -0.272508,0.33762 -0.202572,0.15917 -0.446141,0.22669 -0.241157,0.0675 -0.614951,0.0675 h -1.27331 v -3.59084 h 1.063504 q 0.393086,0 0.588423,0.0289 0.195338,0.0289 0.373794,0.12058 0.197749,0.1037 0.286977,0.26769 0.08923,0.16157 0.08923,0.38826 0,0.25563 -0.130225,0.43649 -0.130225,0.17846 -0.347266,0.28698 v 0.0193 q 0.364147,0.0748 0.573954,0.32074 0.209807,0.24357 0.209807,0.61737 z m -0.803054,-1.61817 q 0,-0.13022 -0.04341,-0.21945 -0.04341,-0.0892 -0.139871,-0.1447 -0.113344,-0.0651 -0.274919,-0.0796 -0.161576,-0.0169 -0.400321,-0.0169 h -0.569131 v 1.03698 h 0.617362 q 0.224276,0 0.356913,-0.0217 0.132636,-0.0241 0.24598,-0.0965 0.113344,-0.0724 0.159164,-0.18569 0.04823,-0.11576 0.04823,-0.27251 z m 0.30627,1.63746 q 0,-0.21704 -0.06511,-0.34486 -0.06511,-0.12781 -0.236334,-0.21704 -0.115756,-0.0603 -0.282154,-0.0772 -0.163987,-0.0193 -0.400321,-0.0193 h -0.749999 v 1.33601 h 0.631832 q 0.313504,0 0.513664,-0.0314 0.200161,-0.0338 0.327974,-0.12058 0.135048,-0.0941 0.197749,-0.21463 0.0627,-0.12058 0.0627,-0.31109 z m 3.306266,1.08521 h -1.943728 v -0.36656 h 0.747588 v -2.40675 h -0.747588 v -0.32798 q 0.15193,0 0.325563,-0.0241 0.173633,-0.0265 0.262861,-0.0748 0.110932,-0.0603 0.173633,-0.15193 0.06511,-0.0941 0.07476,-0.2508 h 0.373794 v 3.23633 h 0.733118 z"
       id="text2-9"
       style="font-size:4.9389px;fill:#546e7a;stroke:#546e7a;stroke-width:0.264999"
       aria-label="B1"
       inkscape:label="B1" />
    <path
       d="m 121.54711,164.16373 q -0.13264,0.0579 -0.24116,0.10852 -0.10611,0.0506 -0.27974,0.10611 -0.1471,0.0458 -0.32074,0.0772 -0.17122,0.0338 -0.37861,0.0338 -0.39068,0 -0.71142,-0.10852 -0.31833,-0.11093 -0.55466,-0.34485 -0.23151,-0.2291 -0.36174,-0.58119 -0.13022,-0.3545 -0.13022,-0.82235 0,-0.44373 0.1254,-0.79341 0.1254,-0.34967 0.36174,-0.59083 0.2291,-0.23392 0.55225,-0.35691 0.32556,-0.12299 0.72106,-0.12299 0.28939,0 0.57636,0.0699 0.28939,0.0699 0.64148,0.24598 v 0.56672 h -0.0362 q -0.29663,-0.24839 -0.58843,-0.36173 -0.2918,-0.11335 -0.62459,-0.11335 -0.27251,0 -0.49196,0.0892 -0.21705,0.0868 -0.38827,0.27251 -0.1664,0.18086 -0.26045,0.4582 -0.0916,0.27492 -0.0916,0.63665 0,0.37862 0.10129,0.65113 0.1037,0.2725 0.26527,0.44372 0.16881,0.17846 0.39309,0.26528 0.22669,0.0844 0.47749,0.0844 0.34485,0 0.6463,-0.11816 0.30145,-0.11817 0.56431,-0.35451 h 0.0338 z m 2.26688,-3.49196 -1.7291,4.48553 h -0.4172 l 1.72186,-4.48553 z m 3.62218,3.75241 h -0.61977 l -1.20097,-1.42765 h -0.67283 v 1.42765 h -0.47749 v -3.59083 h 1.00563 q 0.32556,0 0.5426,0.0434 0.21704,0.041 0.39068,0.14951 0.19533,0.12299 0.30386,0.3111 0.11093,0.18569 0.11093,0.47266 0,0.38827 -0.19534,0.65113 -0.19534,0.26045 -0.53778,0.39309 z m -1.11656,-2.58038 q 0,-0.15434 -0.0555,-0.27251 -0.0531,-0.12058 -0.17846,-0.20257 -0.1037,-0.0699 -0.24598,-0.0965 -0.14228,-0.0289 -0.33521,-0.0289 h -0.5619 v 1.3553 h 0.48232 q 0.22669,0 0.3955,-0.0386 0.16881,-0.041 0.28697,-0.14951 0.10852,-0.10129 0.15917,-0.23151 0.053,-0.13264 0.053,-0.33521 z m 3.71141,2.58038 h -1.94373 v -0.36656 h 0.74759 v -2.40675 h -0.74759 v -0.32797 q 0.15193,0 0.32557,-0.0241 0.17363,-0.0265 0.26286,-0.0748 0.11093,-0.0603 0.17363,-0.15193 0.0651,-0.0941 0.0748,-0.2508 h 0.37379 v 3.23633 h 0.73312 z"
       id="text2-4"
       style="font-size:4.9389px;fill:#fafafa;stroke:#fafafa;stroke-width:0.264999"
       aria-label="C/R1"
       inkscape:label="C" />
    <path
       d="m 88.031953,188.80554 h -0.619774 l -1.420416,-1.59887 -0.356913,0.38103 v 1.21784 h -0.477491 v -3.59083 h 0.477491 v 1.87379 l 1.743567,-1.87379 h 0.578777 l -1.603695,1.6881 z m 2.872183,0 h -2.430865 v -0.50402 q 0.253215,-0.21704 0.50643,-0.43408 0.255627,-0.21704 0.47508,-0.43167 0.463022,-0.44855 0.634243,-0.71141 0.171222,-0.26528 0.171222,-0.57155 0,-0.27974 -0.185691,-0.43649 -0.183279,-0.15917 -0.513665,-0.15917 -0.219453,0 -0.47508,0.0772 -0.255626,0.0772 -0.499195,0.23634 h -0.02412 v -0.50643 q 0.171222,-0.0844 0.455787,-0.15434 0.286977,-0.0699 0.554662,-0.0699 0.55225,0 0.865754,0.26769 0.313505,0.26527 0.313505,0.72106 0,0.20498 -0.05306,0.38344 -0.05064,0.17604 -0.151929,0.33521 -0.09405,0.14951 -0.221864,0.29421 -0.125402,0.14469 -0.30627,0.32074 -0.258038,0.25321 -0.532958,0.49196 -0.274919,0.23633 -0.513665,0.4389 h 1.93167 z m 2.394691,-3.7524 -1.729097,4.48552 h -0.417202 l 1.721862,-4.48552 z m 3.35932,2.6479 q 0,0.26769 -0.101286,0.47267 -0.101286,0.20498 -0.272508,0.33762 -0.202572,0.15916 -0.44614,0.22669 -0.241158,0.0675 -0.614951,0.0675 h -1.27331 v -3.59083 h 1.063503 q 0.393086,0 0.588424,0.0289 0.195337,0.0289 0.373793,0.12058 0.197749,0.1037 0.286977,0.26768 0.08923,0.16158 0.08923,0.38827 0,0.25562 -0.130224,0.43649 -0.130225,0.17846 -0.347267,0.28698 v 0.0193 q 0.364148,0.0748 0.573954,0.32074 0.209807,0.24357 0.209807,0.61736 z m -0.803053,-1.61816 q 0,-0.13023 -0.04341,-0.21946 -0.04341,-0.0892 -0.139871,-0.14469 -0.113344,-0.0651 -0.274919,-0.0796 -0.161575,-0.0169 -0.400321,-0.0169 h -0.569131 v 1.03697 h 0.617362 q 0.224277,0 0.356913,-0.0217 0.132636,-0.0241 0.24598,-0.0965 0.113344,-0.0724 0.159164,-0.1857 0.04823,-0.11575 0.04823,-0.2725 z m 0.306269,1.63745 q 0,-0.21704 -0.06511,-0.34485 -0.06511,-0.12781 -0.236334,-0.21704 -0.115756,-0.0603 -0.282154,-0.0772 -0.163987,-0.0193 -0.400321,-0.0193 h -0.749999 v 1.33601 h 0.631832 q 0.313504,0 0.513665,-0.0314 0.20016,-0.0338 0.327973,-0.12058 0.135049,-0.0941 0.197749,-0.21463 0.0627,-0.12058 0.0627,-0.3111 z m 3.51125,1.08521 h -2.430865 v -0.50402 q 0.253215,-0.21704 0.50643,-0.43408 0.255627,-0.21704 0.47508,-0.43167 0.463022,-0.44855 0.634244,-0.71141 0.171221,-0.26528 0.171221,-0.57155 0,-0.27974 -0.185691,-0.43649 -0.183279,-0.15917 -0.513665,-0.15917 -0.219453,0 -0.475079,0.0772 -0.255627,0.0772 -0.499196,0.23634 h -0.02412 v -0.50643 q 0.171222,-0.0844 0.455788,-0.15434 0.286977,-0.0699 0.554661,-0.0699 0.55225,0 0.865755,0.26769 0.313504,0.26527 0.313504,0.72106 0,0.20498 -0.05306,0.38344 -0.05064,0.17604 -0.151929,0.33521 -0.09405,0.14951 -0.221864,0.29421 -0.125402,0.14469 -0.30627,0.32074 -0.258038,0.25321 -0.532957,0.49196 -0.27492,0.23633 -0.513665,0.4389 h 1.931669 z"
       id="text2-9-3"
       style="font-size:4.9389px;fill:#546e7a;stroke:#546e7a;stroke-width:0.265"
       aria-label="K2/B2"
       inkscape:label="K2" />
    <path
       d="m 147.37755,173.88908 q 0,0.48955 -0.21463,0.88746 -0.21222,0.39791 -0.56672,0.61736 -0.24598,0.15193 -0.54983,0.21945 -0.30145,0.0675 -0.79582,0.0675 h -0.90675 v -3.59083 h 0.8971 q 0.52572,0 0.8344,0.0772 0.3111,0.0748 0.52573,0.20739 0.36656,0.2291 0.57154,0.61013 0.20498,0.38103 0.20498,0.90434 z m -0.49919,-0.007 q 0,-0.42202 -0.14711,-0.71141 -0.1471,-0.28939 -0.4389,-0.45579 -0.21222,-0.12057 -0.45097,-0.16639 -0.23874,-0.0482 -0.57154,-0.0482 h -0.44855 v 2.7709 h 0.44855 q 0.34485,0 0.60048,-0.0506 0.25804,-0.0506 0.47267,-0.18811 0.26768,-0.17122 0.40032,-0.45096 0.13505,-0.27974 0.13505,-0.69936 z m 2.86253,-1.95337 -1.72909,4.48553 h -0.41721 l 1.72187,-4.48553 z m 2.92283,3.75241 h -2.2717 v -3.59083 h 0.47749 v 3.16639 h 1.79421 z m 2.60932,0 h -1.94373 v -0.36656 h 0.74759 v -2.40675 h -0.74759 v -0.32797 q 0.15193,0 0.32557,-0.0241 0.17363,-0.0265 0.26286,-0.0748 0.11093,-0.0603 0.17363,-0.15193 0.0651,-0.0941 0.0748,-0.2508 h 0.37379 v 3.23633 h 0.73312 z"
       id="text2-8"
       style="font-size:4.9389px;fill:#fafafa;stroke:#fafafa;stroke-width:0.265"
       aria-label="D/L1"
       inkscape:label="D" />
    <path
       d="m 144.66083,204.88199 h -2.2717 v -3.59083 h 0.47749 v 3.16639 h 1.79421 z m 2.81431,0 h -2.43087 v -0.50402 q 0.25322,-0.21704 0.50643,-0.43408 0.25563,-0.21704 0.47508,-0.43167 0.46302,-0.44856 0.63424,-0.71142 0.17123,-0.26527 0.17123,-0.57154 0,-0.27974 -0.1857,-0.4365 -0.18328,-0.15916 -0.51366,-0.15916 -0.21945,0 -0.47508,0.0772 -0.25563,0.0772 -0.4992,0.23634 h -0.0241 v -0.50644 q 0.17122,-0.0844 0.45579,-0.15434 0.28697,-0.0699 0.55466,-0.0699 0.55225,0 0.86575,0.26768 0.31351,0.26528 0.31351,0.72106 0,0.20499 -0.0531,0.38344 -0.0506,0.17605 -0.15193,0.33521 -0.0941,0.14952 -0.22186,0.29421 -0.1254,0.1447 -0.30627,0.32074 -0.25804,0.25322 -0.53296,0.49196 -0.27492,0.23634 -0.51366,0.43891 h 1.93167 z"
       id="text2-8-7"
       style="font-size:4.9389px;fill:#546e7a;stroke:#546e7a;stroke-width:0.265"
       aria-label="L2"
       inkscape:label="L2" />
    <path
       d="m 70.312013,170.43288 h -0.508842 l -0.35209,-1.00081 h -1.553052 l -0.35209,1.00081 h -0.484726 l 1.307072,-3.59083 h 0.636655 z m -1.008038,-1.41077 -0.62942,-1.76286 -0.631832,1.76286 z m 3.144691,-2.34164 -1.729098,4.48552 h -0.417202 l 1.721863,-4.48552 z m 3.35932,2.64791 q 0,0.26768 -0.101286,0.47266 -0.101286,0.20499 -0.272508,0.33762 -0.202572,0.15917 -0.446141,0.22669 -0.241157,0.0675 -0.614951,0.0675 h -1.27331 v -3.59083 h 1.063503 q 0.393087,0 0.588424,0.0289 0.195337,0.0289 0.373794,0.12058 0.197749,0.1037 0.286977,0.26769 0.08923,0.16157 0.08923,0.38826 0,0.25563 -0.130225,0.4365 -0.130225,0.17845 -0.347266,0.28697 v 0.0193 q 0.364147,0.0748 0.573954,0.32074 0.209807,0.24357 0.209807,0.61737 z m -0.803054,-1.61817 q 0,-0.13022 -0.04341,-0.21945 -0.04341,-0.0892 -0.139871,-0.1447 -0.113344,-0.0651 -0.27492,-0.0796 -0.161575,-0.0169 -0.400321,-0.0169 h -0.569131 v 1.03698 h 0.617363 q 0.224276,0 0.356912,-0.0217 0.132637,-0.0241 0.245981,-0.0965 0.113344,-0.0724 0.159164,-0.18569 0.04823,-0.11576 0.04823,-0.27251 z m 0.30627,1.63746 q 0,-0.21704 -0.06511,-0.34486 -0.06511,-0.12781 -0.236334,-0.21704 -0.115755,-0.0603 -0.282154,-0.0772 -0.163987,-0.0193 -0.400321,-0.0193 h -0.749999 v 1.33601 h 0.631832 q 0.313505,0 0.513665,-0.0314 0.200161,-0.0338 0.327974,-0.12058 0.135048,-0.0941 0.197749,-0.21463 0.0627,-0.12058 0.0627,-0.31109 z m 3.195333,-0.64389 q 0.115755,0.1037 0.190514,0.26045 0.07476,0.15675 0.07476,0.40514 0,0.24598 -0.08923,0.45097 -0.08923,0.20498 -0.250803,0.35691 -0.180868,0.16881 -0.426848,0.2508 -0.243569,0.0796 -0.535369,0.0796 -0.299035,0 -0.588424,-0.0724 -0.289389,-0.0699 -0.47508,-0.15434 v -0.50402 h 0.03617 q 0.204983,0.13505 0.482314,0.22428 0.277331,0.0892 0.535369,0.0892 0.151929,0 0.323151,-0.0506 0.171222,-0.0506 0.277331,-0.14952 0.110932,-0.10611 0.163987,-0.23392 0.05547,-0.12781 0.05547,-0.32315 0,-0.19293 -0.0627,-0.31833 -0.06029,-0.12781 -0.16881,-0.20016 -0.108521,-0.0748 -0.262861,-0.10128 -0.154341,-0.0289 -0.332797,-0.0289 h -0.217042 v -0.40032 h 0.16881 q 0.366559,0 0.583601,-0.15193 0.219453,-0.15434 0.219453,-0.44856 0,-0.13022 -0.05547,-0.22668 -0.05547,-0.0989 -0.15434,-0.16158 -0.103698,-0.0627 -0.221865,-0.0868 -0.118167,-0.0241 -0.267684,-0.0241 -0.2291,0 -0.487138,0.082 -0.258038,0.082 -0.487138,0.23151 h -0.02411 v -0.50402 q 0.171221,-0.0844 0.455787,-0.15434 0.286977,-0.0723 0.554662,-0.0723 0.262861,0 0.463021,0.0482 0.200161,0.0482 0.361736,0.15434 0.173633,0.11575 0.262862,0.27974 0.08923,0.16399 0.08923,0.38344 0,0.29904 -0.212219,0.52331 -0.209806,0.22187 -0.496783,0.27974 v 0.0338 q 0.115755,0.0193 0.265273,0.082 0.149517,0.0603 0.253215,0.15193 z"
       id="text2"
       style="font-size:4.9389px;fill:#fafafa;stroke:#fafafa;stroke-width:0.265"
       aria-label="A/B3"
       inkscape:label="A" />
    <path
       d="m 94.658528,158.8297 q 0,0.26769 -0.101286,0.47267 -0.101286,0.20499 -0.272508,0.33762 -0.202572,0.15917 -0.446141,0.22669 -0.241157,0.0675 -0.614951,0.0675 h -1.27331 v -3.59083 h 1.063503 q 0.393087,0 0.588424,0.0289 0.195337,0.0289 0.373794,0.12058 0.197749,0.1037 0.286977,0.26769 0.08923,0.16157 0.08923,0.38826 0,0.25562 -0.130225,0.43649 -0.130225,0.17846 -0.347266,0.28698 v 0.0193 q 0.364147,0.0748 0.573954,0.32074 0.209807,0.24357 0.209807,0.61736 z m -0.803054,-1.61816 q 0,-0.13023 -0.04341,-0.21945 -0.04341,-0.0892 -0.139871,-0.1447 -0.113344,-0.0651 -0.27492,-0.0796 -0.161575,-0.0169 -0.400321,-0.0169 h -0.569131 v 1.03697 h 0.617363 q 0.224276,0 0.356913,-0.0217 0.132636,-0.0241 0.24598,-0.0965 0.113344,-0.0724 0.159164,-0.18569 0.04823,-0.11576 0.04823,-0.27251 z m 0.30627,1.63746 q 0,-0.21704 -0.06511,-0.34486 -0.06511,-0.12781 -0.236334,-0.21704 -0.115755,-0.0603 -0.282154,-0.0772 -0.163987,-0.0193 -0.400321,-0.0193 h -0.749999 v 1.33601 h 0.631832 q 0.313505,0 0.513665,-0.0314 0.200161,-0.0338 0.327974,-0.12058 0.135048,-0.0941 0.197749,-0.21463 0.0627,-0.12058 0.0627,-0.31109 z m 2.766073,-2.6672 -1.729097,4.48552 h -0.417202 l 1.721863,-4.48552 z m 3.359323,2.6479 q 0,0.26769 -0.10129,0.47267 -0.10128,0.20499 -0.272506,0.33762 -0.202572,0.15917 -0.446141,0.22669 -0.241157,0.0675 -0.614951,0.0675 h -1.27331 v -3.59083 h 1.063503 q 0.393086,0 0.588424,0.0289 0.195337,0.0289 0.373793,0.12058 0.197749,0.1037 0.286977,0.26769 0.08923,0.16157 0.08923,0.38826 0,0.25562 -0.130225,0.43649 -0.130225,0.17846 -0.347267,0.28698 v 0.0193 q 0.364148,0.0748 0.573954,0.32074 0.20981,0.24357 0.20981,0.61736 z m -0.803056,-1.61816 q 0,-0.13023 -0.04341,-0.21945 -0.04341,-0.0892 -0.139871,-0.1447 -0.113344,-0.0651 -0.274919,-0.0796 -0.161575,-0.0169 -0.400321,-0.0169 h -0.569131 v 1.03697 h 0.617362 q 0.224277,0 0.356913,-0.0217 0.132637,-0.0241 0.245981,-0.0965 0.113343,-0.0724 0.159163,-0.18569 0.04823,-0.11576 0.04823,-0.27251 z m 0.306269,1.63746 q 0,-0.21704 -0.06511,-0.34486 -0.06511,-0.12781 -0.236334,-0.21704 -0.115756,-0.0603 -0.282154,-0.0772 -0.163987,-0.0193 -0.400321,-0.0193 h -0.749999 v 1.33601 h 0.631832 q 0.313504,0 0.513665,-0.0314 0.20016,-0.0338 0.327974,-0.12058 0.135048,-0.0941 0.197749,-0.21463 0.0627,-0.12058 0.0627,-0.31109 z m 3.593247,0.0748 h -0.53296 v 1.01044 h -0.46302 v -1.01044 h -1.71945 v -0.55467 l 1.73874,-2.02572 h 0.44373 v 2.19453 h 0.53296 z m -0.99598,-0.38586 v -1.62057 l -1.39148,1.62057 z"
       id="text2-5"
       style="font-size:4.9389px;fill:#fafafa;stroke:#fafafa;stroke-width:0.265"
       aria-label="B/B4"
       inkscape:label="B" />
    <path
       d="m 395.77835,170.64818 h -2.34245 l -5.3685,-6.04298 -1.34896,1.44011 v 4.60287 h -1.80469 v -13.57164 h 1.80469 v 7.08204 l 6.58986,-7.08204 h 2.1875 l -6.06121,6.38022 z m 9.66148,-6.53517 q 0.4375,0.39193 0.72005,0.98438 0.28255,0.59245 0.28255,1.53125 0,0.92969 -0.33724,1.70443 -0.33724,0.77474 -0.94791,1.34896 -0.6836,0.63802 -1.61329,0.94792 -0.92057,0.30078 -2.02344,0.30078 -1.13021,0 -2.22396,-0.27344 -1.09375,-0.26432 -1.79558,-0.58333 v -1.90495 h 0.13672 q 0.77474,0.51041 1.82292,0.84765 1.04818,0.33724 2.02344,0.33724 0.57422,0 1.22136,-0.1914 0.64714,-0.19141 1.04818,-0.56511 0.41927,-0.40104 0.61979,-0.88411 0.20964,-0.48308 0.20964,-1.22136 0,-0.72917 -0.23698,-1.20313 -0.22787,-0.48307 -0.63803,-0.75651 -0.41015,-0.28255 -0.99349,-0.38281 -0.58333,-0.10938 -1.25781,-0.10938 h -0.82032 v -1.51302 h 0.63803 q 1.38542,0 2.20573,-0.57422 0.82943,-0.58333 0.82943,-1.69532 0,-0.49218 -0.20964,-0.85677 -0.20963,-0.3737 -0.58333,-0.61068 -0.39193,-0.23698 -0.83854,-0.32812 -0.44662,-0.0911 -1.01173,-0.0911 -0.86588,0 -1.84114,0.3099 -0.97527,0.30989 -1.84115,0.875 h -0.0911 v -1.90495 q 0.64714,-0.31901 1.72266,-0.58334 1.08464,-0.27343 2.09636,-0.27343 0.99349,0 1.75,0.18229 0.75651,0.18229 1.36719,0.58333 0.65625,0.4375 0.99349,1.0573 0.33724,0.61979 0.33724,1.44922 0,1.13021 -0.80208,1.97787 -0.79297,0.83854 -1.87761,1.05729 v 0.1276 q 0.4375,0.0729 1.00261,0.3099 0.5651,0.22787 0.95703,0.57422 z m 10.24481,-7.64715 -6.53517,16.95316 h -1.57683 l 6.50783,-16.95316 z m 13.69013,14.18232 h -2.34245 l -4.53907,-5.39584 h -2.54298 v 5.39584 h -1.80469 v -13.57164 h 3.80079 q 1.23047,0 2.05079,0.16406 0.82031,0.15495 1.47656,0.56511 0.73828,0.46484 1.14844,1.17578 0.41927,0.70182 0.41927,1.78646 0,1.46745 -0.73828,2.46094 -0.73828,0.98438 -2.03256,1.48568 z m -4.22006,-9.75262 q 0,-0.58334 -0.20964,-1.02995 -0.20052,-0.45573 -0.67448,-0.76563 -0.39192,-0.26432 -0.92969,-0.36458 -0.53776,-0.10938 -1.26693,-0.10938 h -2.1237 v 5.12241 h 1.82292 q 0.85678,0 1.4948,-0.14584 0.63802,-0.15495 1.08463,-0.5651 0.41016,-0.38282 0.60157,-0.875 0.20052,-0.50131 0.20052,-1.26693 z m 14.80211,9.75262 h -9.18752 v -1.90495 q 0.95703,-0.82032 1.91407,-1.64063 0.96614,-0.82032 1.79557,-1.63151 1.75001,-1.69532 2.39714,-2.68881 0.64714,-1.00261 0.64714,-2.16016 0,-1.0573 -0.70183,-1.64974 -0.69271,-0.60157 -1.94141,-0.60157 -0.82942,0 -1.79557,0.29167 -0.96615,0.29167 -1.88672,0.89323 h -0.0912 v -1.91407 q 0.64714,-0.31901 1.72266,-0.58333 1.08464,-0.26432 2.09636,-0.26432 2.08724,0 3.27214,1.01172 1.1849,1.0026 1.1849,2.72526 0,0.77474 -0.20052,1.44922 -0.19141,0.66537 -0.57422,1.26693 -0.35547,0.56511 -0.83855,1.11198 -0.47396,0.54688 -1.15755,1.21225 -0.97526,0.95703 -2.01433,1.85937 -1.03906,0.89324 -1.94141,1.65886 h 7.3008 z"
       id="text2-9-7"
       style="font-size:18.6667px;fill:#546e7a;stroke:#546e7a;stroke-width:1.00157"
       transform="matrix(0.26458333,0,0,0.26458333,12.678748,148.15412)"
       aria-label="K3/R2"
       inkscape:label="K3" />
  </g>
</svg>
