<?xml version="1.0" encoding="UTF-8" standalone="no"?>
<!-- Created with Inkscape (http://www.inkscape.org/) -->

<svg
   width="83.814712mm"
   height="53.8056704mm"
   viewBox="0 0 104.76839 67.257088"
   version="1.1"
   id="svg1"
   inkscape:version="1.4.2 (ebf0e940, 2025-05-08)"
   sodipodi:docname="usb2neogeo_typea.svg"
   xmlns:inkscape="http://www.inkscape.org/namespaces/inkscape"
   xmlns:sodipodi="http://sodipodi.sourceforge.net/DTD/sodipodi-0.dtd"
   xmlns="http://www.w3.org/2000/svg"
   xmlns:svg="http://www.w3.org/2000/svg">
  <sodipodi:namedview
     id="namedview1"
     pagecolor="#ffffff"
     bordercolor="#000000"
     borderopacity="0.25"
     inkscape:showpageshadow="2"
     inkscape:pageopacity="0.0"
     inkscape:pagecheckerboard="0"
     inkscape:deskcolor="#d1d1d1"
     inkscape:document-units="mm"
     inkscape:zoom="1.5864338"
     inkscape:cx="271.36336"
     inkscape:cy="86.672384"
     inkscape:window-width="1600"
     inkscape:window-height="782"
     inkscape:window-x="0"
     inkscape:window-y="25"
     inkscape:window-maximized="1"
     inkscape:current-layer="layer1" />
  <defs
     id="defs1" />
  <g
     inkscape:label="Layer 1"
     inkscape:groupmode="layer"
     id="layer1"
     transform="translate(-56.356249,-147.10833)">
    <path
       d="m 72.7887,169.61414 q 0,0.26769 -0.101286,0.47267 -0.101286,0.20498 -0.272507,0.33762 -0.202572,0.15917 -0.446141,0.22669 -0.241157,0.0675 -0.614951,0.0675 h -1.27331 v -3.59083 h 1.063503 q 0.393086,0 0.588424,0.0289 0.195337,0.0289 0.373793,0.12058 0.197749,0.1037 0.286978,0.26768 0.08923,0.16158 0.08923,0.38827 0,0.25562 -0.130225,0.43649 -0.130225,0.17846 -0.347267,0.28698 v 0.0193 q 0.364148,0.0748 0.573955,0.32074 0.209806,0.24357 0.209806,0.61736 z m -0.803053,-1.61816 q 0,-0.13023 -0.04341,-0.21945 -0.04341,-0.0892 -0.139872,-0.1447 -0.113344,-0.0651 -0.274919,-0.0796 -0.161575,-0.0169 -0.400321,-0.0169 h -0.569131 v 1.03697 h 0.617363 q 0.224276,0 0.356912,-0.0217 0.132637,-0.0241 0.245981,-0.0965 0.113344,-0.0724 0.159163,-0.18569 0.04823,-0.11576 0.04823,-0.27251 z m 0.30627,1.63746 q 0,-0.21705 -0.06511,-0.34486 -0.06511,-0.12781 -0.236334,-0.21704 -0.115755,-0.0603 -0.282154,-0.0772 -0.163987,-0.0193 -0.400321,-0.0193 h -0.749999 v 1.33601 h 0.631832 q 0.313504,0 0.513665,-0.0314 0.20016,-0.0338 0.327974,-0.12058 0.135048,-0.0941 0.197749,-0.21463 0.0627,-0.12058 0.0627,-0.31109 z m 3.195333,-0.64389 q 0.115755,0.10369 0.190514,0.26045 0.07476,0.15675 0.07476,0.40514 0,0.24598 -0.08923,0.45096 -0.08923,0.20499 -0.250804,0.35692 -0.180868,0.16881 -0.426848,0.2508 -0.243569,0.0796 -0.535369,0.0796 -0.299035,0 -0.588424,-0.0724 -0.289388,-0.0699 -0.47508,-0.15434 v -0.50401 h 0.03617 q 0.204984,0.13504 0.482314,0.22427 0.277331,0.0892 0.53537,0.0892 0.151929,0 0.32315,-0.0506 0.171222,-0.0506 0.277331,-0.14952 0.110932,-0.10611 0.163987,-0.23392 0.05547,-0.12782 0.05547,-0.32315 0,-0.19293 -0.0627,-0.31833 -0.06029,-0.12781 -0.16881,-0.20016 -0.108521,-0.0748 -0.262861,-0.10129 -0.154341,-0.0289 -0.332797,-0.0289 h -0.217042 v -0.40032 h 0.16881 q 0.366559,0 0.583601,-0.15193 0.219453,-0.15434 0.219453,-0.44855 0,-0.13022 -0.05547,-0.22669 -0.05547,-0.0989 -0.154341,-0.16157 -0.103697,-0.0627 -0.221865,-0.0868 -0.118167,-0.0241 -0.267684,-0.0241 -0.229099,0 -0.487138,0.082 -0.258038,0.082 -0.487137,0.23151 h -0.02412 v -0.50402 q 0.171222,-0.0844 0.455787,-0.15434 0.286977,-0.0724 0.554662,-0.0724 0.262861,0 0.463022,0.0482 0.20016,0.0482 0.361736,0.15435 0.173633,0.11575 0.262861,0.27974 0.08923,0.16398 0.08923,0.38344 0,0.29903 -0.212218,0.52331 -0.209807,0.22186 -0.496784,0.27974 v 0.0338 q 0.115755,0.0193 0.265273,0.082 0.149517,0.0603 0.253215,0.15193 z"
       id="text2"
       style="font-size:4.9389px;fill:#546e7a;stroke:#546e7a;stroke-width:0.265"
       aria-label="B3"
       inkscape:label="B3" />
    <path
       d="m 92.933046,157.42858 q 0,0.23875 -0.08441,0.44373 -0.08199,0.20257 -0.231511,0.35209 -0.185691,0.18569 -0.438906,0.27974 -0.253215,0.0916 -0.639067,0.0916 h -0.477491 v 1.33842 h -0.477492 v -3.59083 h 0.974276 q 0.32315,0 0.547427,0.0555 0.224276,0.053 0.397909,0.16881 0.204984,0.13746 0.315916,0.34244 0.113344,0.20499 0.113344,0.51849 z m -0.496784,0.0121 q 0,-0.18569 -0.06511,-0.32315 -0.06511,-0.13746 -0.197749,-0.22428 -0.115756,-0.0748 -0.265273,-0.10611 -0.147106,-0.0338 -0.373794,-0.0338 h -0.472668 v 1.43489 h 0.402732 q 0.289389,0 0.470257,-0.0506 0.180868,-0.0531 0.294212,-0.1664 0.113344,-0.11575 0.159164,-0.24356 0.04823,-0.12782 0.04823,-0.28698 z m 3.258034,2.49356 h -1.943727 v -0.36655 h 0.747587 v -2.40675 h -0.747587 v -0.32798 q 0.151929,0 0.325562,-0.0241 0.173633,-0.0265 0.262862,-0.0748 0.110932,-0.0603 0.173633,-0.15193 0.06511,-0.0941 0.07476,-0.2508 h 0.373794 v 3.23633 h 0.733118 z m 2.599675,-3.7524 -1.729097,4.48552 h -0.417202 l 1.721862,-4.48552 z m 3.359319,2.6479 q 0,0.26769 -0.10128,0.47267 -0.10129,0.20499 -0.27251,0.33762 -0.20257,0.15917 -0.44614,0.22669 -0.24116,0.0675 -0.61495,0.0675 h -1.273315 v -3.59083 h 1.063505 q 0.39309,0 0.58842,0.0289 0.19534,0.0289 0.3738,0.12058 0.19775,0.1037 0.28697,0.26769 0.0892,0.16157 0.0892,0.38826 0,0.25562 -0.13022,0.43649 -0.13023,0.17846 -0.34727,0.28698 v 0.0193 q 0.36415,0.0748 0.57395,0.32074 0.20981,0.24357 0.20981,0.61736 z m -0.80305,-1.61816 q 0,-0.13023 -0.0434,-0.21945 -0.0434,-0.0892 -0.13987,-0.1447 -0.11335,-0.0651 -0.27492,-0.0796 -0.16158,-0.0169 -0.400322,-0.0169 h -0.569131 v 1.03697 h 0.617363 q 0.22428,0 0.35691,-0.0217 0.13264,-0.0241 0.24598,-0.0965 0.11335,-0.0724 0.15917,-0.18569 0.0482,-0.11576 0.0482,-0.27251 z m 0.30627,1.63746 q 0,-0.21704 -0.0651,-0.34486 -0.0651,-0.12781 -0.23633,-0.21704 -0.11575,-0.0603 -0.28215,-0.0772 -0.16399,-0.0193 -0.40032,-0.0193 h -0.750003 v 1.33601 h 0.631833 q 0.3135,0 0.51366,-0.0314 0.20016,-0.0338 0.32798,-0.12058 0.13505,-0.0941 0.19775,-0.21463 0.0627,-0.12058 0.0627,-0.31109 z m 3.59324,0.0748 h -0.53296 v 1.01044 h -0.46302 v -1.01044 h -1.71945 v -0.55467 l 1.73874,-2.02572 h 0.44373 v 2.19453 h 0.53296 z m -0.99598,-0.38586 v -1.62057 l -1.39148,1.62057 z"
       id="text2-5"
       style="font-size:4.9389px;fill:#546e7a;stroke:#546e7a;stroke-width:0.265"
       aria-label="P1/B4"
       inkscape:label="P1" />
    <path
       d="m 393.7458,161.17811 q 0,0.90234 -0.31901,1.67709 -0.3099,0.76562 -0.875,1.33073 -0.70183,0.70182 -1.65886,1.05729 -0.95703,0.34636 -2.41537,0.34636 h -1.80469 v 5.0586 h -1.80469 v -13.57164 h 3.6823 q 1.22135,0 2.06901,0.20963 0.84766,0.20053 1.50391,0.63803 0.77474,0.51953 1.19401,1.29427 0.42839,0.77474 0.42839,1.95964 z m -1.87761,0.0456 q 0,-0.70182 -0.24609,-1.22135 -0.2461,-0.51954 -0.7474,-0.84766 -0.4375,-0.28255 -1.00261,-0.40104 -0.55599,-0.12761 -1.41276,-0.12761 h -1.78646 v 5.42319 h 1.52214 q 1.09375,0 1.77734,-0.19141 0.6836,-0.20052 1.11198,-0.62891 0.42839,-0.4375 0.60157,-0.92057 0.18229,-0.48307 0.18229,-1.08464 z m 13.08857,9.4245 h -9.18752 v -1.90495 q 0.95703,-0.82032 1.91406,-1.64063 0.96615,-0.82032 1.79558,-1.63151 1.75,-1.69532 2.39714,-2.68881 0.64714,-1.00261 0.64714,-2.16016 0,-1.0573 -0.70183,-1.64974 -0.69271,-0.60157 -1.94141,-0.60157 -0.82943,0 -1.79557,0.29167 -0.96615,0.29167 -1.88672,0.89323 h -0.0912 v -1.91407 q 0.64714,-0.31901 1.72266,-0.58333 1.08464,-0.26432 2.09636,-0.26432 2.08724,0 3.27214,1.01172 1.1849,1.0026 1.1849,2.72526 0,0.77474 -0.20053,1.44922 -0.1914,0.66537 -0.57422,1.26693 -0.35546,0.56511 -0.83854,1.11198 -0.47396,0.54688 -1.15755,1.21225 -0.97526,0.95703 -2.01433,1.85937 -1.03906,0.89324 -1.94141,1.65886 h 7.3008 z m 9.05079,-14.18232 -6.53517,16.95316 h -1.57682 l 6.50782,-16.95316 z m 13.69013,14.18232 h -2.34245 l -4.53907,-5.39584 h -2.54297 v 5.39584 h -1.8047 v -13.57164 h 3.80079 q 1.23047,0 2.05079,0.16406 0.82031,0.15495 1.47656,0.56511 0.73829,0.46484 1.14844,1.17578 0.41927,0.70182 0.41927,1.78646 0,1.46745 -0.73828,2.46094 -0.73828,0.98438 -2.03255,1.48568 z m -4.22006,-9.75262 q 0,-0.58334 -0.20963,-1.02995 -0.20053,-0.45573 -0.67448,-0.76563 -0.39193,-0.26432 -0.92969,-0.36458 -0.53776,-0.10938 -1.26693,-0.10938 h -2.1237 v 5.12241 h 1.82292 q 0.85677,0 1.49479,-0.14584 0.63802,-0.15495 1.08464,-0.5651 0.41015,-0.38282 0.60156,-0.875 0.20052,-0.50131 0.20052,-1.26693 z m 14.02737,9.75262 h -7.34637 v -1.38542 h 2.82553 v -9.09637 h -2.82553 v -1.23959 q 0.57422,0 1.23047,-0.0911 0.65625,-0.10026 0.99349,-0.28256 0.41928,-0.22786 0.65626,-0.57422 0.24609,-0.35546 0.28255,-0.94791 h 1.41276 v 12.23179 h 2.77084 z"
       id="text2-4"
       style="fill:#546e7a;fill-opacity:1;stroke:#546e7a;stroke-width:1.00157;stroke-dasharray:none;stroke-opacity:1;font-size:18.6667px"
       aria-label="P2/R1"
       transform="matrix(0.26458333,0,0,0.26458333,15.506805,119.27352)"
       inkscape:label="P2" />
    <path
       d="m 145.53631,173.17525 q 0,0.23875 -0.0844,0.44373 -0.082,0.20258 -0.23151,0.35209 -0.18569,0.18569 -0.4389,0.27975 -0.25322,0.0916 -0.63907,0.0916 h -0.47749 v 1.33842 h -0.47749 v -3.59083 h 0.97427 q 0.32315,0 0.54743,0.0555 0.22428,0.0531 0.39791,0.16881 0.20498,0.13746 0.31592,0.34245 0.11334,0.20498 0.11334,0.51848 z m -0.49678,0.0121 q 0,-0.18569 -0.0651,-0.32315 -0.0651,-0.13746 -0.19775,-0.22427 -0.11575,-0.0748 -0.26527,-0.10611 -0.1471,-0.0338 -0.37379,-0.0338 h -0.47267 v 1.43489 h 0.40273 q 0.28939,0 0.47026,-0.0506 0.18087,-0.0531 0.29421,-0.1664 0.11334,-0.11576 0.15916,-0.24357 0.0482,-0.12781 0.0482,-0.28698 z m 3.1471,0.76447 q 0.11575,0.1037 0.19051,0.26045 0.0748,0.15675 0.0748,0.40514 0,0.24598 -0.0892,0.45097 -0.0892,0.20498 -0.2508,0.35691 -0.18087,0.16881 -0.42685,0.2508 -0.24357,0.0796 -0.53537,0.0796 -0.29903,0 -0.58842,-0.0724 -0.28939,-0.0699 -0.47508,-0.15434 v -0.50402 h 0.0362 q 0.20499,0.13505 0.48232,0.22428 0.27733,0.0892 0.53537,0.0892 0.15192,0 0.32315,-0.0506 0.17122,-0.0506 0.27733,-0.14952 0.11093,-0.10611 0.16398,-0.23392 0.0555,-0.12781 0.0555,-0.32315 0,-0.19293 -0.0627,-0.31833 -0.0603,-0.12781 -0.16881,-0.20016 -0.10852,-0.0748 -0.26286,-0.10128 -0.15434,-0.0289 -0.3328,-0.0289 h -0.21704 v -0.40032 h 0.16881 q 0.36656,0 0.5836,-0.15193 0.21945,-0.15434 0.21945,-0.44855 0,-0.13023 -0.0555,-0.22669 -0.0555,-0.0989 -0.15434,-0.16158 -0.1037,-0.0627 -0.22187,-0.0868 -0.11817,-0.0241 -0.26768,-0.0241 -0.2291,0 -0.48714,0.082 -0.25804,0.082 -0.48714,0.23151 h -0.0241 v -0.50401 q 0.17122,-0.0844 0.45578,-0.15434 0.28698,-0.0724 0.55466,-0.0724 0.26287,0 0.46303,0.0482 0.20016,0.0482 0.36173,0.15434 0.17364,0.11576 0.26286,0.27974 0.0892,0.16399 0.0892,0.38344 0,0.29904 -0.21222,0.52331 -0.2098,0.22187 -0.49678,0.27975 v 0.0338 q 0.11576,0.0193 0.26527,0.082 0.14952,0.0603 0.25322,0.15193 z m 2.7106,-2.02331 -1.72909,4.48553 h -0.4172 l 1.72186,-4.48553 z m 2.92283,3.75241 h -2.2717 v -3.59083 h 0.47749 v 3.16639 h 1.79421 z m 2.60932,0 h -1.94373 v -0.36656 h 0.74759 v -2.40675 h -0.74759 v -0.32797 q 0.15193,0 0.32557,-0.0241 0.17363,-0.0265 0.26286,-0.0748 0.11093,-0.0603 0.17363,-0.15193 0.0651,-0.0941 0.0748,-0.2508 h 0.37379 v 3.23633 h 0.73312 z"
       id="text2-8"
       style="font-size:4.9389px;fill:#546e7a;stroke:#546e7a;stroke-width:0.265"
       aria-label="P3/L1"
       inkscape:label="P3" />
    <path
       d="m 142.0319,204.88199 h -0.61977 l -1.42042,-1.59887 -0.35691,0.38102 v 1.21785 h -0.47749 v -3.59083 h 0.47749 v 1.87379 l 1.74356,-1.87379 h 0.57878 l -1.60369,1.6881 z m 2.55627,-1.7291 q 0.11575,0.1037 0.19051,0.26045 0.0748,0.15675 0.0748,0.40515 0,0.24598 -0.0892,0.45096 -0.0892,0.20498 -0.2508,0.35691 -0.18087,0.16881 -0.42685,0.25081 -0.24357,0.0796 -0.53537,0.0796 -0.29903,0 -0.58842,-0.0724 -0.28939,-0.0699 -0.47508,-0.15434 v -0.50402 h 0.0362 q 0.20498,0.13505 0.48232,0.22428 0.27733,0.0892 0.53536,0.0892 0.15193,0 0.32315,-0.0506 0.17123,-0.0506 0.27734,-0.14952 0.11093,-0.1061 0.16398,-0.23392 0.0555,-0.12781 0.0555,-0.32315 0,-0.19292 -0.0627,-0.31833 -0.0603,-0.12781 -0.16881,-0.20016 -0.10852,-0.0748 -0.26286,-0.10128 -0.15434,-0.0289 -0.3328,-0.0289 h -0.21704 v -0.40032 h 0.16881 q 0.36656,0 0.5836,-0.15193 0.21945,-0.15434 0.21945,-0.44855 0,-0.13023 -0.0555,-0.22669 -0.0555,-0.0989 -0.15435,-0.16158 -0.10369,-0.0627 -0.22186,-0.0868 -0.11817,-0.0241 -0.26768,-0.0241 -0.2291,0 -0.48714,0.082 -0.25804,0.082 -0.48714,0.23152 h -0.0241 v -0.50402 q 0.17123,-0.0844 0.45579,-0.15434 0.28698,-0.0724 0.55466,-0.0724 0.26286,0 0.46303,0.0482 0.20016,0.0482 0.36173,0.15434 0.17363,0.11576 0.26286,0.27974 0.0892,0.16399 0.0892,0.38344 0,0.29904 -0.21222,0.52331 -0.2098,0.22187 -0.49678,0.27975 v 0.0338 q 0.11575,0.0193 0.26527,0.082 0.14952,0.0603 0.25322,0.15193 z m 2.7106,-2.02331 -1.72909,4.48553 h -0.41721 l 1.72187,-4.48553 z m 2.92283,3.75241 h -2.2717 v -3.59083 h 0.47749 v 3.16639 h 1.79421 z m 2.8143,0 h -2.43086 v -0.50402 q 0.25321,-0.21704 0.50643,-0.43408 0.25563,-0.21704 0.47508,-0.43167 0.46302,-0.44856 0.63424,-0.71142 0.17122,-0.26527 0.17122,-0.57154 0,-0.27974 -0.18569,-0.4365 -0.18328,-0.15916 -0.51366,-0.15916 -0.21945,0 -0.47508,0.0772 -0.25563,0.0772 -0.4992,0.23634 h -0.0241 v -0.50644 q 0.17122,-0.0844 0.45578,-0.15434 0.28698,-0.0699 0.55467,-0.0699 0.55225,0 0.86575,0.26768 0.3135,0.26528 0.3135,0.72106 0,0.20499 -0.0531,0.38344 -0.0506,0.17605 -0.15193,0.33521 -0.0941,0.14952 -0.22186,0.29421 -0.12541,0.1447 -0.30627,0.32074 -0.25804,0.25322 -0.53296,0.49196 -0.27492,0.23634 -0.51367,0.43891 h 1.93167 z"
       id="text2-8-7"
       style="font-size:4.9389px;fill:#546e7a;stroke:#546e7a;stroke-width:0.265"
       aria-label="K3/L2"
       inkscape:label="K3" />
    <path
       d="m 395.10387,166.47369 q 0,1.01172 -0.38281,1.78646 -0.38281,0.77474 -1.02995,1.27605 -0.76563,0.60156 -1.6862,0.85677 -0.91146,0.25521 -2.32422,0.25521 h -4.81251 v -13.57164 h 4.01954 q 1.48568,0 2.22396,0.10937 0.73828,0.10938 1.41276,0.45573 0.7474,0.39193 1.08464,1.01172 0.33724,0.61068 0.33724,1.46746 0,0.96614 -0.49219,1.64974 -0.49219,0.67448 -1.3125,1.08464 v 0.0729 q 1.3763,0.28255 2.16927,1.21224 0.79297,0.92058 0.79297,2.33334 z m -3.03516,-6.1159 q 0,-0.49218 -0.16406,-0.82942 -0.16406,-0.33724 -0.52865,-0.54688 -0.42838,-0.24609 -1.03906,-0.30078 -0.61068,-0.0638 -1.51303,-0.0638 h -2.15104 v 3.91927 h 2.33334 q 0.84765,0 1.34896,-0.082 0.5013,-0.0911 0.92969,-0.36458 0.42838,-0.27344 0.60156,-0.70183 0.18229,-0.4375 0.18229,-1.02995 z m 1.15756,6.18882 q 0,-0.82032 -0.2461,-1.30339 -0.24609,-0.48307 -0.89323,-0.82031 -0.4375,-0.22787 -1.06641,-0.29167 -0.61979,-0.0729 -1.51302,-0.0729 h -2.83464 v 5.04949 h 2.38802 q 1.1849,0 1.94141,-0.11849 0.75651,-0.1276 1.23959,-0.45573 0.51042,-0.35547 0.7474,-0.8112 0.23698,-0.45573 0.23698,-1.17578 z m 12.49611,4.10157 h -7.34637 v -1.38542 h 2.82553 v -9.09637 h -2.82553 v -1.23959 q 0.57422,0 1.23048,-0.0911 0.65625,-0.10026 0.99349,-0.28256 0.41927,-0.22786 0.65625,-0.57422 0.24609,-0.35546 0.28255,-0.94791 h 1.41276 v 12.23179 h 2.77084 z"
       id="text2-9"
       style="fill:#546e7a;fill-opacity:1;stroke:#546e7a;stroke-width:1.00157;stroke-dasharray:none;stroke-opacity:1;font-size:18.6667px"
       aria-label="B1"
       transform="matrix(0.26458333,0,0,0.26458333,-36.916065,154.43873)"
       inkscape:label="B1" />
    <path
       d="m 88.031953,188.80554 h -0.619774 l -1.420416,-1.59887 -0.356913,0.38103 v 1.21784 h -0.477491 v -3.59083 h 0.477491 v 1.87379 l 1.743567,-1.87379 h 0.578777 l -1.603695,1.6881 z m 2.667199,0 h -1.943727 v -0.36656 h 0.747587 v -2.40675 h -0.747587 v -0.32797 q 0.151929,0 0.325562,-0.0241 0.173633,-0.0265 0.262862,-0.0747 0.110932,-0.0603 0.173633,-0.15193 0.06511,-0.0941 0.07476,-0.25081 h 0.373793 v 3.23633 h 0.733118 z m 2.599675,-3.7524 -1.729097,4.48552 h -0.417202 l 1.721862,-4.48552 z m 3.35932,2.6479 q 0,0.26769 -0.101286,0.47267 -0.101286,0.20498 -0.272508,0.33762 -0.202572,0.15916 -0.44614,0.22669 -0.241158,0.0675 -0.614951,0.0675 h -1.27331 v -3.59083 h 1.063503 q 0.393086,0 0.588424,0.0289 0.195337,0.0289 0.373793,0.12058 0.197749,0.1037 0.286977,0.26768 0.08923,0.16158 0.08923,0.38827 0,0.25562 -0.130224,0.43649 -0.130225,0.17846 -0.347267,0.28698 v 0.0193 q 0.364148,0.0748 0.573954,0.32074 0.209807,0.24357 0.209807,0.61736 z m -0.803053,-1.61816 q 0,-0.13023 -0.04341,-0.21946 -0.04341,-0.0892 -0.139871,-0.14469 -0.113344,-0.0651 -0.274919,-0.0796 -0.161575,-0.0169 -0.400321,-0.0169 h -0.569131 v 1.03697 h 0.617362 q 0.224277,0 0.356913,-0.0217 0.132636,-0.0241 0.24598,-0.0965 0.113344,-0.0724 0.159164,-0.1857 0.04823,-0.11575 0.04823,-0.2725 z m 0.306269,1.63745 q 0,-0.21704 -0.06511,-0.34485 -0.06511,-0.12781 -0.236334,-0.21704 -0.115756,-0.0603 -0.282154,-0.0772 -0.163987,-0.0193 -0.400321,-0.0193 h -0.749999 v 1.33601 h 0.631832 q 0.313504,0 0.513665,-0.0314 0.20016,-0.0338 0.327973,-0.12058 0.135049,-0.0941 0.197749,-0.21463 0.0627,-0.12058 0.0627,-0.3111 z m 3.51125,1.08521 h -2.430865 v -0.50402 q 0.253215,-0.21704 0.50643,-0.43408 0.255627,-0.21704 0.47508,-0.43167 0.463022,-0.44855 0.634244,-0.71141 0.171221,-0.26528 0.171221,-0.57155 0,-0.27974 -0.185691,-0.43649 -0.183279,-0.15917 -0.513665,-0.15917 -0.219453,0 -0.475079,0.0772 -0.255627,0.0772 -0.499196,0.23634 h -0.02412 v -0.50643 q 0.171222,-0.0844 0.455788,-0.15434 0.286977,-0.0699 0.554661,-0.0699 0.55225,0 0.865755,0.26769 0.313504,0.26527 0.313504,0.72106 0,0.20498 -0.05306,0.38344 -0.05064,0.17604 -0.151929,0.33521 -0.09405,0.14951 -0.221864,0.29421 -0.125402,0.14469 -0.30627,0.32074 -0.258038,0.25321 -0.532957,0.49196 -0.27492,0.23633 -0.513665,0.4389 h 1.931669 z"
       id="text2-9-3"
       style="font-size:4.9389px;fill:#546e7a;stroke:#546e7a;stroke-width:0.265"
       aria-label="K1/B2"
       inkscape:label="K1" />
    <path
       d="m 395.77835,170.64818 h -2.34245 l -5.3685,-6.04298 -1.34896,1.44011 v 4.60287 h -1.80469 v -13.57164 h 1.80469 v 7.08204 l 6.58986,-7.08204 h 2.1875 l -6.06121,6.38022 z m 10.85549,0 h -9.18752 v -1.90495 q 0.95704,-0.82032 1.91407,-1.64063 0.96615,-0.82032 1.79558,-1.63151 1.75,-1.69532 2.39714,-2.68881 0.64713,-1.00261 0.64713,-2.16016 0,-1.0573 -0.70182,-1.64974 -0.69271,-0.60157 -1.94141,-0.60157 -0.82943,0 -1.79558,0.29167 -0.96614,0.29167 -1.88672,0.89323 h -0.0911 v -1.91407 q 0.64714,-0.31901 1.72266,-0.58333 1.08464,-0.26432 2.09636,-0.26432 2.08725,0 3.27214,1.01172 1.1849,1.0026 1.1849,2.72526 0,0.77474 -0.20052,1.44922 -0.19141,0.66537 -0.57422,1.26693 -0.35547,0.56511 -0.83854,1.11198 -0.47396,0.54688 -1.15756,1.21225 -0.97526,0.95703 -2.01432,1.85937 -1.03907,0.89324 -1.94141,1.65886 h 7.30079 z m 9.0508,-14.18232 -6.53517,16.95316 h -1.57683 l 6.50783,-16.95316 z m 13.69013,14.18232 h -2.34245 l -4.53907,-5.39584 h -2.54298 v 5.39584 h -1.80469 v -13.57164 h 3.80079 q 1.23047,0 2.05079,0.16406 0.82031,0.15495 1.47656,0.56511 0.73828,0.46484 1.14844,1.17578 0.41927,0.70182 0.41927,1.78646 0,1.46745 -0.73828,2.46094 -0.73828,0.98438 -2.03256,1.48568 z m -4.22006,-9.75262 q 0,-0.58334 -0.20964,-1.02995 -0.20052,-0.45573 -0.67448,-0.76563 -0.39192,-0.26432 -0.92969,-0.36458 -0.53776,-0.10938 -1.26693,-0.10938 h -2.1237 v 5.12241 h 1.82292 q 0.85678,0 1.4948,-0.14584 0.63802,-0.15495 1.08463,-0.5651 0.41016,-0.38282 0.60157,-0.875 0.20052,-0.50131 0.20052,-1.26693 z m 14.80211,9.75262 h -9.18752 v -1.90495 q 0.95703,-0.82032 1.91407,-1.64063 0.96614,-0.82032 1.79557,-1.63151 1.75001,-1.69532 2.39714,-2.68881 0.64714,-1.00261 0.64714,-2.16016 0,-1.0573 -0.70183,-1.64974 -0.69271,-0.60157 -1.94141,-0.60157 -0.82942,0 -1.79557,0.29167 -0.96615,0.29167 -1.88672,0.89323 h -0.0912 v -1.91407 q 0.64714,-0.31901 1.72266,-0.58333 1.08464,-0.26432 2.09636,-0.26432 2.08724,0 3.27214,1.01172 1.1849,1.0026 1.1849,2.72526 0,0.77474 -0.20052,1.44922 -0.19141,0.66537 -0.57422,1.26693 -0.35547,0.56511 -0.83855,1.11198 -0.47396,0.54688 -1.15755,1.21225 -0.97526,0.95703 -2.01433,1.85937 -1.03906,0.89324 -1.94141,1.65886 h 7.3008 z"
       id="text2-9-7"
       style="fill:#546e7a;fill-opacity:1;stroke:#546e7a;stroke-width:1.00157;stroke-dasharray:none;stroke-opacity:1;font-size:18.6667px"
       aria-label="K2/R2"
       transform="matrix(0.26458333,0,0,0.26458333,12.678753,148.15411)"
       inkscape:label="K2" />
    <circle
       style="fill:none;stroke:#546e7a;stroke-width:0.269285;stroke-dasharray:none;stroke-opacity:1;fill-opacity:1"
       id="path2"
       cx="67.672478"
       cy="197.78795"
       r="11.181586"
       inkscape:label="B1" />
    <circle
       style="fill:none;stroke:#546e7a;stroke-width:0.269285;stroke-dasharray:none;stroke-opacity:1;fill-opacity:1"
       id="path2-8"
       cx="72.916512"
       cy="168.92323"
       r="11.181586"
       inkscape:label="B3" />
    <circle
       style="fill:none;stroke:#546e7a;stroke-width:0.269285;stroke-dasharray:none;stroke-opacity:1;fill-opacity:1"
       id="path2-4"
       cx="92.414986"
       cy="187.2959"
       r="11.181586"
       inkscape:label="B2" />
    <circle
       style="fill:none;fill-opacity:1;stroke:#546e7a;stroke-width:0.269285;stroke-dasharray:none;stroke-opacity:1"
       id="path2-4-0"
       cx="146.0966"
       cy="203.04919"
       r="11.181586"
       inkscape:label="L2" />
    <circle
       style="fill:none;stroke:#546e7a;stroke-width:0.269285;stroke-dasharray:none;stroke-opacity:1;fill-opacity:1"
       id="path2-4-7"
       cx="121.80225"
       cy="191.79514"
       r="11.181586"
       inkscape:label="R2" />
    <circle
       style="fill:none;stroke:#546e7a;stroke-width:0.269285;stroke-dasharray:none;stroke-opacity:1;fill-opacity:1"
       id="path2-4-1"
       cx="149.80841"
       cy="174.17123"
       r="11.181586"
       inkscape:label="L1" />
    <circle
       style="fill:none;stroke:#546e7a;stroke-width:0.269285;stroke-dasharray:none;stroke-opacity:1;fill-opacity:1"
       id="path2-4-2"
       cx="124.29992"
       cy="162.91454"
       r="11.181586"
       inkscape:label="R1" />
    <circle
       style="fill:none;stroke:#546e7a;stroke-width:0.269285;stroke-dasharray:none;stroke-opacity:1;fill-opacity:1"
       id="path2-0"
       cx="97.666962"
       cy="158.42456"
       r="11.181586"
       inkscape:label="B4" />
  </g>
</svg>
